<mxfile host="65bd71144e">
    <diagram id="ySNXTaIqURgEww29bVEV" name="Page-1">
        <mxGraphModel dx="1986" dy="509" grid="1" gridSize="10" guides="1" tooltips="1" connect="1" arrows="1" fold="1" page="1" pageScale="1" pageWidth="850" pageHeight="1100" math="0" shadow="0">
            <root>
                <mxCell id="0"/>
                <mxCell id="1" parent="0"/>
                <mxCell id="2" value="" style="rounded=0;whiteSpace=wrap;html=1;" parent="1" vertex="1">
                    <mxGeometry x="40" y="20" width="720" height="590" as="geometry"/>
                </mxCell>
                <mxCell id="3" value="Home Page Name" style="rounded=0;whiteSpace=wrap;html=1;" parent="1" vertex="1">
                    <mxGeometry x="270" y="20" width="260" height="40" as="geometry"/>
                </mxCell>
                <mxCell id="4" value="" style="rounded=0;whiteSpace=wrap;html=1;" parent="1" vertex="1">
                    <mxGeometry x="70" y="140" width="660" height="440" as="geometry"/>
                </mxCell>
                <mxCell id="5" value="Your team here" style="rounded=0;whiteSpace=wrap;html=1;" parent="1" vertex="1">
                    <mxGeometry x="110" y="440" width="220" height="130" as="geometry"/>
                </mxCell>
                <mxCell id="6" value="Opposing Team here" style="rounded=0;whiteSpace=wrap;html=1;" parent="1" vertex="1">
                    <mxGeometry x="470" y="440" width="240" height="130" as="geometry"/>
                </mxCell>
                <mxCell id="7" value="intro message" style="rounded=0;whiteSpace=wrap;html=1;" parent="1" vertex="1">
                    <mxGeometry x="340" y="170" width="120" height="60" as="geometry"/>
                </mxCell>
                <mxCell id="8" value="pick your teams/ if logged in edit team" style="rounded=0;whiteSpace=wrap;html=1;" parent="1" vertex="1">
                    <mxGeometry x="130" y="280" width="120" height="60" as="geometry"/>
                </mxCell>
                <mxCell id="9" value="trophies" style="rounded=0;whiteSpace=wrap;html=1;" parent="1" vertex="1">
                    <mxGeometry x="340" y="280" width="120" height="60" as="geometry"/>
                </mxCell>
                <mxCell id="10" value="fight now!" style="rounded=0;whiteSpace=wrap;html=1;" parent="1" vertex="1">
                    <mxGeometry x="550" y="285" width="120" height="60" as="geometry"/>
                </mxCell>
                <mxCell id="11" value="" style="rounded=0;whiteSpace=wrap;html=1;" parent="1" vertex="1">
                    <mxGeometry x="40" y="640" width="720" height="470" as="geometry"/>
                </mxCell>
                <mxCell id="17" style="edgeStyle=none;html=1;exitX=0.5;exitY=1;exitDx=0;exitDy=0;entryX=0.5;entryY=0;entryDx=0;entryDy=0;" parent="1" source="12" target="13" edge="1">
                    <mxGeometry relative="1" as="geometry"/>
                </mxCell>
                <mxCell id="22" style="edgeStyle=none;html=1;exitX=0;exitY=0;exitDx=0;exitDy=0;entryX=1;entryY=0;entryDx=0;entryDy=0;" parent="1" source="12" target="16" edge="1">
                    <mxGeometry relative="1" as="geometry"/>
                </mxCell>
                <mxCell id="12" value="Choose your mons" style="rounded=0;whiteSpace=wrap;html=1;" parent="1" vertex="1">
                    <mxGeometry x="340" y="690" width="120" height="60" as="geometry"/>
                </mxCell>
                <mxCell id="21" style="edgeStyle=none;html=1;exitX=0.5;exitY=0;exitDx=0;exitDy=0;entryX=0;entryY=0.5;entryDx=0;entryDy=0;" parent="1" source="13" target="14" edge="1">
                    <mxGeometry relative="1" as="geometry"/>
                </mxCell>
                <mxCell id="13" value="All available mons" style="rounded=0;whiteSpace=wrap;html=1;" parent="1" vertex="1">
                    <mxGeometry x="105" y="860" width="590" height="220" as="geometry"/>
                </mxCell>
                <mxCell id="18" style="edgeStyle=none;html=1;exitX=0.5;exitY=1;exitDx=0;exitDy=0;entryX=0.5;entryY=0;entryDx=0;entryDy=0;" parent="1" source="14" target="15" edge="1">
                    <mxGeometry relative="1" as="geometry"/>
                </mxCell>
                <mxCell id="14" value="your selected team" style="rounded=0;whiteSpace=wrap;html=1;" parent="1" vertex="1">
                    <mxGeometry x="550" y="690" width="120" height="60" as="geometry"/>
                </mxCell>
                <mxCell id="15" value="confirm" style="rounded=0;whiteSpace=wrap;html=1;" parent="1" vertex="1">
                    <mxGeometry x="585" y="760" width="50" height="20" as="geometry"/>
                </mxCell>
                <mxCell id="19" style="edgeStyle=none;html=1;exitX=1;exitY=0.5;exitDx=0;exitDy=0;entryX=0;entryY=0.5;entryDx=0;entryDy=0;" parent="1" source="16" target="12" edge="1">
                    <mxGeometry relative="1" as="geometry"/>
                </mxCell>
                <mxCell id="83" style="edgeStyle=none;html=1;exitX=0.5;exitY=1;exitDx=0;exitDy=0;entryX=0.5;entryY=0;entryDx=0;entryDy=0;" parent="1" source="16" target="82" edge="1">
                    <mxGeometry relative="1" as="geometry"/>
                </mxCell>
                <mxCell id="16" value="points left for team selection" style="rounded=0;whiteSpace=wrap;html=1;" parent="1" vertex="1">
                    <mxGeometry x="130" y="690" width="120" height="60" as="geometry"/>
                </mxCell>
                <mxCell id="23" value="" style="rounded=0;whiteSpace=wrap;html=1;" parent="1" vertex="1">
                    <mxGeometry x="40" y="1160" width="720" height="460" as="geometry"/>
                </mxCell>
                <mxCell id="27" style="edgeStyle=none;html=1;exitX=0.5;exitY=1;exitDx=0;exitDy=0;entryX=0.5;entryY=0;entryDx=0;entryDy=0;" parent="1" source="24" target="25" edge="1">
                    <mxGeometry relative="1" as="geometry"/>
                </mxCell>
                <mxCell id="24" value="Trophies" style="rounded=0;whiteSpace=wrap;html=1;" parent="1" vertex="1">
                    <mxGeometry x="340" y="1210" width="120" height="60" as="geometry"/>
                </mxCell>
                <mxCell id="28" style="edgeStyle=none;html=1;exitX=0.5;exitY=0;exitDx=0;exitDy=0;entryX=0.5;entryY=1;entryDx=0;entryDy=0;" parent="1" source="25" target="26" edge="1">
                    <mxGeometry relative="1" as="geometry"/>
                </mxCell>
                <mxCell id="25" value="Your trophies here, 1 win, 2 win, 1 loss, 2 loss, etc" style="rounded=0;whiteSpace=wrap;html=1;" parent="1" vertex="1">
                    <mxGeometry x="80" y="1380" width="640" height="210" as="geometry"/>
                </mxCell>
                <mxCell id="26" value="redeem trophies" style="rounded=0;whiteSpace=wrap;html=1;" parent="1" vertex="1">
                    <mxGeometry x="130" y="1210" width="120" height="60" as="geometry"/>
                </mxCell>
                <mxCell id="29" value="Home Page button" style="rounded=0;whiteSpace=wrap;html=1;" parent="1" vertex="1">
                    <mxGeometry x="550" y="1210" width="120" height="60" as="geometry"/>
                </mxCell>
                <mxCell id="30" value="" style="rounded=0;whiteSpace=wrap;html=1;" parent="1" vertex="1">
                    <mxGeometry x="40" y="1660" width="720" height="500" as="geometry"/>
                </mxCell>
                <mxCell id="31" value="Fighting page" style="rounded=0;whiteSpace=wrap;html=1;" parent="1" vertex="1">
                    <mxGeometry x="340" y="1700" width="120" height="60" as="geometry"/>
                </mxCell>
                <mxCell id="32" value="Your team" style="rounded=0;whiteSpace=wrap;html=1;" parent="1" vertex="1">
                    <mxGeometry x="50" y="1920" width="120" height="60" as="geometry"/>
                </mxCell>
                <mxCell id="33" value="opposing team" style="rounded=0;whiteSpace=wrap;html=1;" parent="1" vertex="1">
                    <mxGeometry x="630" y="1920" width="120" height="60" as="geometry"/>
                </mxCell>
                <mxCell id="34" value="Stats and turns text area" style="rounded=0;whiteSpace=wrap;html=1;" parent="1" vertex="1">
                    <mxGeometry x="340" y="1920" width="120" height="60" as="geometry"/>
                </mxCell>
                <mxCell id="35" value="your current fighter" style="rounded=0;whiteSpace=wrap;html=1;" parent="1" vertex="1">
                    <mxGeometry x="190" y="1920" width="120" height="60" as="geometry"/>
                </mxCell>
                <mxCell id="36" value="opponent fighter" style="rounded=0;whiteSpace=wrap;html=1;" parent="1" vertex="1">
                    <mxGeometry x="490" y="1920" width="120" height="60" as="geometry"/>
                </mxCell>
                <mxCell id="37" value="your team info" style="rounded=0;whiteSpace=wrap;html=1;" parent="1" vertex="1">
                    <mxGeometry x="190" y="2000" width="120" height="60" as="geometry"/>
                </mxCell>
                <mxCell id="38" value="opposing team info" style="rounded=0;whiteSpace=wrap;html=1;" parent="1" vertex="1">
                    <mxGeometry x="490" y="2000" width="120" height="60" as="geometry"/>
                </mxCell>
                <mxCell id="39" value="pop up animation for succesful move, visual candy" style="rounded=0;whiteSpace=wrap;html=1;" parent="1" vertex="1">
                    <mxGeometry x="340" y="1810" width="120" height="60" as="geometry"/>
                </mxCell>
                <mxCell id="43" style="edgeStyle=none;html=1;exitX=0.5;exitY=1;exitDx=0;exitDy=0;" parent="1" source="41" target="8" edge="1">
                    <mxGeometry relative="1" as="geometry"/>
                </mxCell>
                <mxCell id="41" value="login" style="rounded=0;whiteSpace=wrap;html=1;" parent="1" vertex="1">
                    <mxGeometry x="130" y="180" width="120" height="40" as="geometry"/>
                </mxCell>
                <mxCell id="51" style="edgeStyle=none;html=1;exitX=0;exitY=1;exitDx=0;exitDy=0;entryX=1;entryY=0.5;entryDx=0;entryDy=0;" parent="1" source="44" target="12" edge="1">
                    <mxGeometry relative="1" as="geometry"/>
                </mxCell>
                <mxCell id="52" style="edgeStyle=none;html=1;exitX=0.5;exitY=1;exitDx=0;exitDy=0;entryX=0.5;entryY=0;entryDx=0;entryDy=0;" parent="1" source="44" target="14" edge="1">
                    <mxGeometry relative="1" as="geometry"/>
                </mxCell>
                <mxCell id="44" value="if no user, create user" style="rounded=0;whiteSpace=wrap;html=1;" parent="1" vertex="1">
                    <mxGeometry x="550" y="640" width="80" height="30" as="geometry"/>
                </mxCell>
                <mxCell id="48" value="Create or edit your team page" style="rounded=0;whiteSpace=wrap;html=1;" parent="1" vertex="1">
                    <mxGeometry x="285" y="640" width="230" height="40" as="geometry"/>
                </mxCell>
                <mxCell id="49" value="Trophies Page" style="rounded=0;whiteSpace=wrap;html=1;" parent="1" vertex="1">
                    <mxGeometry x="285" y="1160" width="230" height="30" as="geometry"/>
                </mxCell>
                <mxCell id="50" value="Battling Page" style="rounded=0;whiteSpace=wrap;html=1;" parent="1" vertex="1">
                    <mxGeometry x="280" y="1660" width="240" height="30" as="geometry"/>
                </mxCell>
                <mxCell id="53" value="" style="rounded=0;whiteSpace=wrap;html=1;" parent="1" vertex="1">
                    <mxGeometry x="-15" y="2310" width="830" height="650" as="geometry"/>
                </mxCell>
                <mxCell id="60" style="edgeStyle=none;html=1;exitX=0.5;exitY=1;exitDx=0;exitDy=0;" parent="1" source="54" target="58" edge="1">
                    <mxGeometry relative="1" as="geometry"/>
                </mxCell>
                <mxCell id="85" style="html=1;exitX=0;exitY=1;exitDx=0;exitDy=0;entryX=1;entryY=0;entryDx=0;entryDy=0;" parent="1" source="54" target="55" edge="1">
                    <mxGeometry relative="1" as="geometry"/>
                </mxCell>
                <mxCell id="86" style="edgeStyle=none;html=1;exitX=1;exitY=1;exitDx=0;exitDy=0;entryX=0;entryY=0;entryDx=0;entryDy=0;strokeColor=#F0F0F0;" parent="1" source="54" target="57" edge="1">
                    <mxGeometry relative="1" as="geometry"/>
                </mxCell>
                <mxCell id="88" style="edgeStyle=none;html=1;exitX=1;exitY=0.75;exitDx=0;exitDy=0;strokeColor=#F0F0F0;" parent="1" source="54" target="56" edge="1">
                    <mxGeometry relative="1" as="geometry"/>
                </mxCell>
                <mxCell id="92" style="edgeStyle=none;html=1;exitX=0;exitY=0.75;exitDx=0;exitDy=0;entryX=1;entryY=0;entryDx=0;entryDy=0;strokeColor=#F0F0F0;" parent="1" source="54" target="91" edge="1">
                    <mxGeometry relative="1" as="geometry"/>
                </mxCell>
                <mxCell id="54" value="App" style="rounded=0;whiteSpace=wrap;html=1;" parent="1" vertex="1">
                    <mxGeometry x="365" y="2310" width="120" height="60" as="geometry"/>
                </mxCell>
                <mxCell id="77" style="edgeStyle=none;html=1;exitX=0.5;exitY=1;exitDx=0;exitDy=0;entryX=0.5;entryY=0;entryDx=0;entryDy=0;" parent="1" source="55" target="76" edge="1">
                    <mxGeometry relative="1" as="geometry"/>
                </mxCell>
                <mxCell id="55" value="Fight" style="rounded=0;whiteSpace=wrap;html=1;" parent="1" vertex="1">
                    <mxGeometry x="190" y="2440" width="120" height="60" as="geometry"/>
                </mxCell>
                <mxCell id="56" value="NavBar" style="rounded=0;whiteSpace=wrap;html=1;" parent="1" vertex="1">
                    <mxGeometry x="530" y="2325" width="120" height="60" as="geometry"/>
                </mxCell>
                <mxCell id="99" style="edgeStyle=none;html=1;exitX=0.5;exitY=1;exitDx=0;exitDy=0;entryX=0.5;entryY=0;entryDx=0;entryDy=0;strokeColor=#F0F0F0;" parent="1" source="57" target="98" edge="1">
                    <mxGeometry relative="1" as="geometry"/>
                </mxCell>
                <mxCell id="57" value="Trophies" style="rounded=0;whiteSpace=wrap;html=1;" parent="1" vertex="1">
                    <mxGeometry x="515" y="2440" width="120" height="60" as="geometry"/>
                </mxCell>
                <mxCell id="84" style="html=1;exitX=0.5;exitY=1;exitDx=0;exitDy=0;" parent="1" source="91" target="73" edge="1">
                    <mxGeometry relative="1" as="geometry"/>
                </mxCell>
                <mxCell id="93" style="edgeStyle=none;html=1;strokeColor=#F0F0F0;" parent="1" source="58" target="59" edge="1">
                    <mxGeometry relative="1" as="geometry"/>
                </mxCell>
                <mxCell id="58" value="Home Page/Nav to exist to go to others" style="rounded=0;whiteSpace=wrap;html=1;" parent="1" vertex="1">
                    <mxGeometry x="350" y="2440" width="120" height="60" as="geometry"/>
                </mxCell>
                <mxCell id="95" style="edgeStyle=none;html=1;exitX=0.5;exitY=1;exitDx=0;exitDy=0;entryX=0.5;entryY=0;entryDx=0;entryDy=0;strokeColor=#F0F0F0;" parent="1" source="59" target="94" edge="1">
                    <mxGeometry relative="1" as="geometry"/>
                </mxCell>
                <mxCell id="97" style="edgeStyle=none;html=1;exitX=1;exitY=1;exitDx=0;exitDy=0;entryX=0.5;entryY=0;entryDx=0;entryDy=0;strokeColor=#F0F0F0;" parent="1" source="59" target="96" edge="1">
                    <mxGeometry relative="1" as="geometry"/>
                </mxCell>
                <mxCell id="59" value="Login/Go to Fight/Edit Team/Trophies&lt;br&gt;&lt;br&gt;" style="rounded=0;whiteSpace=wrap;html=1;" parent="1" vertex="1">
                    <mxGeometry x="350" y="2550" width="120" height="60" as="geometry"/>
                </mxCell>
                <mxCell id="72" value="mon card" style="rounded=0;whiteSpace=wrap;html=1;" parent="1" vertex="1">
                    <mxGeometry x="40" y="2690" width="80" height="60" as="geometry"/>
                </mxCell>
                <mxCell id="75" style="edgeStyle=none;html=1;entryX=0.5;entryY=0;entryDx=0;entryDy=0;exitX=0.5;exitY=1;exitDx=0;exitDy=0;" parent="1" source="73" target="72" edge="1">
                    <mxGeometry relative="1" as="geometry">
                        <mxPoint x="410" y="2630" as="sourcePoint"/>
                    </mxGeometry>
                </mxCell>
                <mxCell id="73" value="mon container" style="rounded=0;whiteSpace=wrap;html=1;" parent="1" vertex="1">
                    <mxGeometry x="40" y="2570" width="80" height="60" as="geometry"/>
                </mxCell>
                <mxCell id="76" value="mon to switch sides" style="rounded=0;whiteSpace=wrap;html=1;" parent="1" vertex="1">
                    <mxGeometry x="210" y="2570" width="80" height="60" as="geometry"/>
                </mxCell>
                <mxCell id="82" value="Random Team" style="rounded=0;whiteSpace=wrap;html=1;" parent="1" vertex="1">
                    <mxGeometry x="130" y="770" width="120" height="60" as="geometry"/>
                </mxCell>
                <mxCell id="87" value="Route" style="text;strokeColor=none;align=center;fillColor=none;html=1;verticalAlign=middle;whiteSpace=wrap;rounded=0;" parent="1" vertex="1">
                    <mxGeometry x="290" y="2340" width="60" height="30" as="geometry"/>
                </mxCell>
                <mxCell id="91" value="TeamPage" style="whiteSpace=wrap;html=1;" parent="1" vertex="1">
                    <mxGeometry x="20" y="2440" width="120" height="60" as="geometry"/>
                </mxCell>
                <mxCell id="94" value="&lt;br&gt;&lt;span style=&quot;color: rgb(240, 240, 240); font-family: Helvetica; font-size: 12px; font-style: normal; font-variant-ligatures: normal; font-variant-caps: normal; letter-spacing: normal; orphans: 2; text-align: center; text-indent: 0px; text-transform: none; widows: 2; word-spacing: 0px; -webkit-text-stroke-width: 0px; background-color: rgb(42, 37, 47); text-decoration-thickness: initial; text-decoration-style: initial; text-decoration-color: initial; float: none; display: inline !important;&quot;&gt;if logged in display mini container of your chosen team&lt;/span&gt;&lt;br&gt;" style="whiteSpace=wrap;html=1;" parent="1" vertex="1">
                    <mxGeometry x="310" y="2650" width="120" height="60" as="geometry"/>
                </mxCell>
                <mxCell id="96" value="opponent team mini container" style="whiteSpace=wrap;html=1;" parent="1" vertex="1">
                    <mxGeometry x="450" y="2650" width="120" height="60" as="geometry"/>
                </mxCell>
                <mxCell id="98" value="List of Trophies for User" style="whiteSpace=wrap;html=1;" parent="1" vertex="1">
                    <mxGeometry x="570" y="2540" width="120" height="60" as="geometry"/>
                </mxCell>
                <mxCell id="100" value="App" style="rounded=0;whiteSpace=wrap;html=1;" parent="1" vertex="1">
                    <mxGeometry x="240" y="3240" width="120" height="60" as="geometry"/>
                </mxCell>
                <mxCell id="108" style="edgeStyle=none;html=1;exitX=0.5;exitY=1;exitDx=0;exitDy=0;entryX=1;entryY=0;entryDx=0;entryDy=0;" parent="1" source="101" target="102" edge="1">
                    <mxGeometry relative="1" as="geometry"/>
                </mxCell>
                <mxCell id="109" style="edgeStyle=none;html=1;exitX=0.5;exitY=1;exitDx=0;exitDy=0;entryX=0.5;entryY=0;entryDx=0;entryDy=0;" parent="1" source="101" target="103" edge="1">
                    <mxGeometry relative="1" as="geometry"/>
                </mxCell>
                <mxCell id="110" style="edgeStyle=none;html=1;exitX=0.5;exitY=1;exitDx=0;exitDy=0;entryX=0.5;entryY=0;entryDx=0;entryDy=0;" parent="1" source="101" target="104" edge="1">
                    <mxGeometry relative="1" as="geometry"/>
                </mxCell>
                <mxCell id="111" style="edgeStyle=none;html=1;exitX=0.5;exitY=1;exitDx=0;exitDy=0;entryX=0;entryY=0;entryDx=0;entryDy=0;" parent="1" source="101" target="105" edge="1">
                    <mxGeometry relative="1" as="geometry"/>
                </mxCell>
                <mxCell id="101" value="Navbar" style="rounded=0;whiteSpace=wrap;html=1;" parent="1" vertex="1">
                    <mxGeometry x="240" y="3340" width="120" height="60" as="geometry"/>
                </mxCell>
                <mxCell id="107" style="edgeStyle=none;html=1;entryX=0.5;entryY=0;entryDx=0;entryDy=0;" parent="1" target="106" edge="1">
                    <mxGeometry relative="1" as="geometry">
                        <mxPoint x="-60" y="3500" as="sourcePoint"/>
                    </mxGeometry>
                </mxCell>
                <mxCell id="114" style="edgeStyle=none;html=1;exitX=0.5;exitY=1;exitDx=0;exitDy=0;entryX=0.5;entryY=0;entryDx=0;entryDy=0;" parent="1" source="102" target="112" edge="1">
                    <mxGeometry relative="1" as="geometry"/>
                </mxCell>
                <mxCell id="116" style="edgeStyle=none;html=1;exitX=0.5;exitY=1;exitDx=0;exitDy=0;entryX=0.5;entryY=0;entryDx=0;entryDy=0;" parent="1" source="102" target="115" edge="1">
                    <mxGeometry relative="1" as="geometry"/>
                </mxCell>
                <mxCell id="102" value="Home" style="rounded=0;whiteSpace=wrap;html=1;" parent="1" vertex="1">
                    <mxGeometry x="-120" y="3440" width="120" height="60" as="geometry"/>
                </mxCell>
                <mxCell id="103" value="Battle Team Page" style="rounded=0;whiteSpace=wrap;html=1;" parent="1" vertex="1">
                    <mxGeometry x="120" y="3720" width="120" height="60" as="geometry"/>
                </mxCell>
                <mxCell id="104" value="Battle Arena Page" style="rounded=0;whiteSpace=wrap;html=1;" parent="1" vertex="1">
                    <mxGeometry x="360" y="3720" width="120" height="60" as="geometry"/>
                </mxCell>
                <mxCell id="105" value="Trophies Page" style="rounded=0;whiteSpace=wrap;html=1;" parent="1" vertex="1">
                    <mxGeometry x="600" y="3440" width="120" height="60" as="geometry"/>
                </mxCell>
                <mxCell id="106" value="Login" style="rounded=0;whiteSpace=wrap;html=1;" parent="1" vertex="1">
                    <mxGeometry x="-260" y="3540" width="120" height="60" as="geometry"/>
                </mxCell>
                <mxCell id="112" value="Team Preview Card" style="rounded=0;whiteSpace=wrap;html=1;" parent="1" vertex="1">
                    <mxGeometry x="20" y="3540" width="120" height="60" as="geometry"/>
                </mxCell>
                <mxCell id="115" value="Opponent Gen" style="rounded=0;whiteSpace=wrap;html=1;" parent="1" vertex="1">
                    <mxGeometry x="-120" y="3540" width="120" height="60" as="geometry"/>
                </mxCell>
            </root>
        </mxGraphModel>
    </diagram>
    <diagram id="VmkNJL4O9xOkNCY1BUPm" name="Page-2">
        <mxGraphModel dx="1136" dy="509" grid="1" gridSize="10" guides="1" tooltips="1" connect="1" arrows="1" fold="1" page="1" pageScale="1" pageWidth="850" pageHeight="1100" math="0" shadow="0">
            <root>
                <mxCell id="0"/>
                <mxCell id="1" parent="0"/>
                <mxCell id="daQbohR-gq2aVv0jcW8H-8" style="html=1;exitX=0;exitY=1;exitDx=0;exitDy=0;" edge="1" parent="1" source="daQbohR-gq2aVv0jcW8H-1" target="daQbohR-gq2aVv0jcW8H-2">
                    <mxGeometry relative="1" as="geometry"/>
                </mxCell>
                <mxCell id="daQbohR-gq2aVv0jcW8H-1" value="Home Page/Team Setup Page" style="whiteSpace=wrap;html=1;" vertex="1" parent="1">
                    <mxGeometry x="360" y="100" width="120" height="70" as="geometry"/>
                </mxCell>
                <mxCell id="daQbohR-gq2aVv0jcW8H-10" style="html=1;exitX=0;exitY=1;exitDx=0;exitDy=0;" edge="1" parent="1" source="daQbohR-gq2aVv0jcW8H-2" target="daQbohR-gq2aVv0jcW8H-3">
                    <mxGeometry relative="1" as="geometry"/>
                </mxCell>
                <mxCell id="daQbohR-gq2aVv0jcW8H-11" style="edgeStyle=none;html=1;exitX=1;exitY=1;exitDx=0;exitDy=0;" edge="1" parent="1" source="daQbohR-gq2aVv0jcW8H-2" target="daQbohR-gq2aVv0jcW8H-4">
                    <mxGeometry relative="1" as="geometry"/>
                </mxCell>
                <mxCell id="daQbohR-gq2aVv0jcW8H-17" style="edgeStyle=none;shape=link;html=1;exitX=1;exitY=0.5;exitDx=0;exitDy=0;entryX=-0.02;entryY=0.367;entryDx=0;entryDy=0;entryPerimeter=0;" edge="1" parent="1" source="daQbohR-gq2aVv0jcW8H-2" target="daQbohR-gq2aVv0jcW8H-7">
                    <mxGeometry relative="1" as="geometry"/>
                </mxCell>
                <mxCell id="daQbohR-gq2aVv0jcW8H-2" value="Preview Page" style="whiteSpace=wrap;html=1;" vertex="1" parent="1">
                    <mxGeometry x="250" y="205" width="120" height="60" as="geometry"/>
                </mxCell>
                <mxCell id="daQbohR-gq2aVv0jcW8H-3" value="UserTeam/ TeamPreview Card" style="whiteSpace=wrap;html=1;" vertex="1" parent="1">
                    <mxGeometry x="170" y="330" width="120" height="60" as="geometry"/>
                </mxCell>
                <mxCell id="daQbohR-gq2aVv0jcW8H-4" value="Opponent/ TeamPreivew Card" style="whiteSpace=wrap;html=1;" vertex="1" parent="1">
                    <mxGeometry x="320" y="330" width="120" height="60" as="geometry"/>
                </mxCell>
                <mxCell id="daQbohR-gq2aVv0jcW8H-7" value="Generate Opponent&lt;br&gt;&amp;amp;&lt;br&gt;Render Opponet&lt;br&gt;w/&lt;br&gt;randomize Button" style="whiteSpace=wrap;html=1;" vertex="1" parent="1">
                    <mxGeometry x="450" y="200" width="150" height="90" as="geometry"/>
                </mxCell>
                <mxCell id="daQbohR-gq2aVv0jcW8H-20" style="edgeStyle=none;html=1;exitX=0;exitY=1;exitDx=0;exitDy=0;entryX=0.5;entryY=0;entryDx=0;entryDy=0;" edge="1" parent="1" source="daQbohR-gq2aVv0jcW8H-12" target="daQbohR-gq2aVv0jcW8H-13">
                    <mxGeometry relative="1" as="geometry"/>
                </mxCell>
                <mxCell id="daQbohR-gq2aVv0jcW8H-12" value="BattleArenPage" style="whiteSpace=wrap;html=1;" vertex="1" parent="1">
                    <mxGeometry x="365" y="440" width="120" height="60" as="geometry"/>
                </mxCell>
                <mxCell id="daQbohR-gq2aVv0jcW8H-16" style="edgeStyle=none;shape=link;html=1;exitX=1;exitY=0.5;exitDx=0;exitDy=0;" edge="1" parent="1" source="daQbohR-gq2aVv0jcW8H-13" target="daQbohR-gq2aVv0jcW8H-14">
                    <mxGeometry relative="1" as="geometry"/>
                </mxCell>
                <mxCell id="daQbohR-gq2aVv0jcW8H-21" style="edgeStyle=none;html=1;exitX=0;exitY=1;exitDx=0;exitDy=0;entryX=0.5;entryY=0;entryDx=0;entryDy=0;" edge="1" parent="1" source="daQbohR-gq2aVv0jcW8H-13" target="daQbohR-gq2aVv0jcW8H-18">
                    <mxGeometry relative="1" as="geometry"/>
                </mxCell>
                <mxCell id="daQbohR-gq2aVv0jcW8H-22" style="edgeStyle=none;html=1;exitX=1;exitY=1;exitDx=0;exitDy=0;" edge="1" parent="1" source="daQbohR-gq2aVv0jcW8H-13" target="daQbohR-gq2aVv0jcW8H-19">
                    <mxGeometry relative="1" as="geometry"/>
                </mxCell>
                <mxCell id="daQbohR-gq2aVv0jcW8H-25" style="edgeStyle=none;html=1;exitX=0.25;exitY=1;exitDx=0;exitDy=0;entryX=0.5;entryY=0;entryDx=0;entryDy=0;" edge="1" parent="1" source="daQbohR-gq2aVv0jcW8H-13" target="daQbohR-gq2aVv0jcW8H-23">
                    <mxGeometry relative="1" as="geometry"/>
                </mxCell>
                <mxCell id="daQbohR-gq2aVv0jcW8H-26" style="edgeStyle=none;html=1;exitX=0.75;exitY=1;exitDx=0;exitDy=0;" edge="1" parent="1" source="daQbohR-gq2aVv0jcW8H-13" target="daQbohR-gq2aVv0jcW8H-24">
                    <mxGeometry relative="1" as="geometry"/>
                </mxCell>
                <mxCell id="daQbohR-gq2aVv0jcW8H-13" value="Arena Container:&lt;br&gt;Hp: v Hp:" style="whiteSpace=wrap;html=1;" vertex="1" parent="1">
                    <mxGeometry x="260" y="560" width="120" height="60" as="geometry"/>
                </mxCell>
                <mxCell id="daQbohR-gq2aVv0jcW8H-14" value="Default: Waiting for user or Opponent" style="whiteSpace=wrap;html=1;" vertex="1" parent="1">
                    <mxGeometry x="460" y="560" width="120" height="60" as="geometry"/>
                </mxCell>
                <mxCell id="daQbohR-gq2aVv0jcW8H-18" value="User Fighter:&lt;br&gt;Sprite&lt;br&gt;Moves&lt;br&gt;TeamList" style="whiteSpace=wrap;html=1;" vertex="1" parent="1">
                    <mxGeometry x="60" y="670" width="120" height="90" as="geometry"/>
                </mxCell>
                <mxCell id="daQbohR-gq2aVv0jcW8H-19" value="Oppoent Fighter:&lt;br&gt;Sprite&lt;br&gt;Moves&lt;br&gt;TeamList" style="whiteSpace=wrap;html=1;" vertex="1" parent="1">
                    <mxGeometry x="460" y="675" width="120" height="90" as="geometry"/>
                </mxCell>
                <mxCell id="daQbohR-gq2aVv0jcW8H-23" value="User&lt;br&gt;TeamList" style="whiteSpace=wrap;html=1;" vertex="1" parent="1">
                    <mxGeometry x="225" y="675" width="75" height="60" as="geometry"/>
                </mxCell>
                <mxCell id="daQbohR-gq2aVv0jcW8H-24" value="Opp&lt;br&gt;TeamList" style="whiteSpace=wrap;html=1;" vertex="1" parent="1">
                    <mxGeometry x="340" y="675" width="65" height="60" as="geometry"/>
                </mxCell>
            </root>
        </mxGraphModel>
    </diagram>
</mxfile>